<svg xmlns="http://www.w3.org/2000/svg" viewBox="0 0 16 16" role="img" aria-label="Proud Indian" color="#0F1B24">
<title>Proud Indian</title>
<style>.i{fill:#0F1B24}.c{fill:#0B7FAE}@media (prefers-color-scheme:dark){.i{fill:#F6F2EA}.c{fill:#4CC0EC}}</style><g shape-rendering="crispEdges"><rect x="3" y="1" width="1" height="1" class="i" opacity="0.60"/><rect x="4" y="1" width="1" height="1" class="i"/><rect x="5" y="1" width="1" height="1" class="i" opacity="0.60"/><rect x="3" y="2" width="1" height="1" class="i"/><rect x="4" y="2" width="1" height="1" class="i"/><rect x="5" y="2" width="1" height="1" class="i"/><rect x="3" y="3" width="1" height="1" class="i" opacity="0.60"/><rect x="4" y="3" width="1" height="1" class="i"/><rect x="5" y="3" width="1" height="1" class="i" opacity="0.60"/><rect x="10" y="3" width="1" height="1" class="c" opacity="0.60"/><rect x="11" y="3" width="1" height="1" class="c"/><rect x="12" y="3" width="1" height="1" class="c" opacity="0.60"/><rect x="10" y="4" width="1" height="1" class="c"/><rect x="11" y="4" width="1" height="1" class="c"/><rect x="12" y="4" width="1" height="1" class="c"/><rect x="2" y="5" width="1" height="1" class="i" opacity="0.60"/><rect x="3" y="5" width="1" height="1" class="i"/><rect x="4" y="5" width="1" height="1" class="i"/><rect x="5" y="5" width="1" height="1" class="i"/><rect x="6" y="5" width="1" height="1" class="i"/><rect x="7" y="5" width="1" height="1" class="i"/><rect x="8" y="5" width="1" height="1" class="i" opacity="0.28"/><rect x="10" y="5" width="1" height="1" class="c" opacity="0.60"/><rect x="11" y="5" width="1" height="1" class="c"/><rect x="12" y="5" width="1" height="1" class="c" opacity="0.60"/><rect x="2" y="6" width="1" height="1" class="i" opacity="0.60"/><rect x="3" y="6" width="1" height="1" class="i"/><rect x="4" y="6" width="1" height="1" class="i"/><rect x="5" y="6" width="1" height="1" class="i"/><rect x="6" y="6" width="1" height="1" class="i"/><rect x="7" y="6" width="1" height="1" class="i"/><rect x="8" y="6" width="1" height="1" class="i"/><rect x="9" y="6" width="1" height="1" class="i" opacity="0.28"/><rect x="3" y="7" width="1" height="1" class="i"/><rect x="4" y="7" width="1" height="1" class="i"/><rect x="5" y="7" width="1" height="1" class="i"/><rect x="7" y="7" width="1" height="1" class="i" opacity="0.60"/><rect x="8" y="7" width="1" height="1" class="i"/><rect x="9" y="7" width="1" height="1" class="i"/><rect x="10" y="7" width="1" height="1" class="i"/><rect x="11" y="7" width="1" height="1" class="i"/><rect x="12" y="7" width="1" height="1" class="i"/><rect x="13" y="7" width="1" height="1" class="i" opacity="0.60"/><rect x="3" y="8" width="1" height="1" class="i"/><rect x="4" y="8" width="1" height="1" class="i"/><rect x="5" y="8" width="1" height="1" class="i"/><rect x="8" y="8" width="1" height="1" class="i" opacity="0.28"/><rect x="9" y="8" width="1" height="1" class="i"/><rect x="10" y="8" width="1" height="1" class="i"/><rect x="11" y="8" width="1" height="1" class="i"/><rect x="12" y="8" width="1" height="1" class="i"/><rect x="13" y="8" width="1" height="1" class="i" opacity="0.60"/><rect x="3" y="9" width="1" height="1" class="i"/><rect x="4" y="9" width="1" height="1" class="i"/><rect x="5" y="9" width="1" height="1" class="i"/><rect x="10" y="9" width="1" height="1" class="i"/><rect x="11" y="9" width="1" height="1" class="i"/><rect x="12" y="9" width="1" height="1" class="i"/><rect x="3" y="10" width="1" height="1" class="i"/><rect x="4" y="10" width="1" height="1" class="i"/><rect x="5" y="10" width="1" height="1" class="i"/><rect x="10" y="10" width="1" height="1" class="i"/><rect x="11" y="10" width="1" height="1" class="i"/><rect x="12" y="10" width="1" height="1" class="i"/><rect x="3" y="11" width="1" height="1" class="i"/><rect x="4" y="11" width="1" height="1" class="i"/><rect x="5" y="11" width="1" height="1" class="i"/><rect x="10" y="11" width="1" height="1" class="i"/><rect x="11" y="11" width="1" height="1" class="i"/><rect x="12" y="11" width="1" height="1" class="i"/><rect x="3" y="12" width="1" height="1" class="i"/><rect x="4" y="12" width="1" height="1" class="i"/><rect x="5" y="12" width="1" height="1" class="i"/><rect x="10" y="12" width="1" height="1" class="i"/><rect x="11" y="12" width="1" height="1" class="i"/><rect x="12" y="12" width="1" height="1" class="i"/><rect x="3" y="13" width="1" height="1" class="i"/><rect x="4" y="13" width="1" height="1" class="i"/><rect x="5" y="13" width="1" height="1" class="i"/><rect x="10" y="13" width="1" height="1" class="i"/><rect x="11" y="13" width="1" height="1" class="i"/><rect x="12" y="13" width="1" height="1" class="i"/><rect x="3" y="14" width="1" height="1" class="i"/><rect x="4" y="14" width="1" height="1" class="i"/><rect x="5" y="14" width="1" height="1" class="i"/><rect x="10" y="14" width="1" height="1" class="i"/><rect x="11" y="14" width="1" height="1" class="i"/><rect x="12" y="14" width="1" height="1" class="i"/></g>
</svg>
